<svg width="105" height="56" viewBox="0 0 105 56" fill="none" xmlns="http://www.w3.org/2000/svg">
<g filter="url(#filter0_d_3558_284)">
<path d="M70.6906 21.0752C66.8123 21.0752 63.6611 24.2263 63.6611 28.1047C63.6611 31.983 66.8123 35.1342 70.6906 35.1342C74.569 35.1258 77.7117 31.983 77.7201 28.1047C77.7201 24.2263 74.5773 21.0752 70.6906 21.0752ZM70.6823 33.4792C67.715 33.4792 65.3078 31.0719 65.3078 28.1047V28.0963C65.3078 25.1291 67.7066 22.7302 70.6739 22.7302H70.6823C73.6495 22.7302 76.0568 25.1374 76.0568 28.1047C76.0568 31.0719 73.6495 33.4792 70.6823 33.4792Z" fill="#46BBB3"/>
<path d="M88.1599 21.075C86.087 21.075 84.1228 21.9944 82.7938 23.5826V14.8647C82.7938 14.4049 82.4176 14.0288 81.9579 14.0288C81.4982 14.0288 81.1221 14.4049 81.1221 14.8647V28.1045C81.1221 31.9828 84.2732 35.134 88.1516 35.134C92.0299 35.134 95.1811 31.9828 95.1811 28.1045C95.1811 24.2262 92.0383 21.0834 88.1599 21.075ZM88.1683 33.479C85.201 33.479 82.7938 31.0718 82.7938 28.1045C82.7938 25.1372 85.201 22.73 88.1683 22.73C91.1355 22.73 93.5428 25.1372 93.5428 28.1045C93.5428 31.0718 91.1355 33.479 88.1683 33.479Z" fill="#46BBB3"/>
<path d="M59.3987 21.3091C58.939 21.3091 58.5629 21.6852 58.5629 22.1449V38.8619C58.5629 39.6476 58.2954 40.4166 57.8023 41.0351C57.5348 41.4112 57.6184 41.9295 57.9861 42.2053C58.3121 42.4393 58.7635 42.4143 59.056 42.1301L59.1062 42.0716L59.1563 42.0047C59.8584 41.1103 60.2429 39.9987 60.2429 38.8619C60.2429 38.77 60.2429 38.6864 60.2429 38.5944L60.2346 22.1449C60.2346 21.6852 59.8584 21.3091 59.3987 21.3091Z" fill="#46BBB3"/>
<path d="M59.4569 14.2461C58.9972 14.2461 58.6211 14.6222 58.6211 15.0819V16.2271C58.6211 16.6868 58.9972 17.0629 59.4569 17.0629C59.9167 17.0629 60.2928 16.6868 60.2928 16.2271V15.0736C60.2928 14.6139 59.9167 14.2461 59.4569 14.2461Z" fill="#46BBB3"/>
<path d="M48.1144 21.0753C46.9609 21.0753 45.8743 21.3595 44.9131 21.8526C41.787 13.2183 32.5342 8.2283 23.4652 10.5854C13.853 13.0846 8.07724 22.9142 10.5848 32.5348C13.084 42.1554 22.9136 47.9227 32.5342 45.4152C38.2263 43.9358 42.7984 39.7649 44.8379 34.3235C45.8158 34.8417 46.9275 35.1343 48.1144 35.1343C51.9927 35.1343 55.1439 31.9831 55.1439 28.1048C55.1439 24.2264 52.0011 21.0753 48.1144 21.0753ZM37.6663 34.0978C37.6997 34.5575 37.357 34.9671 36.8973 35.0005C36.4376 35.034 36.028 34.6913 35.9946 34.2316C35.9946 34.1898 35.9946 34.1396 35.9946 34.0978V26.3244C35.9946 24.4438 34.5319 22.8807 32.6512 22.7637H32.4422C30.712 22.7637 29.2326 24.0008 28.9317 25.6975C28.8899 25.9065 28.8732 26.1155 28.8732 26.3244V33.2118V33.2536C28.8481 33.6966 28.4803 34.0477 28.0373 34.0477C27.8869 34.0477 27.7364 34.0059 27.611 33.9306C27.3686 33.7886 27.2182 33.5378 27.2015 33.2536V33.2118V26.3244C27.2015 26.1155 27.1764 25.9065 27.143 25.6975C26.842 24.0008 25.3626 22.7637 23.6324 22.7637H23.4234C21.5428 22.8807 20.08 24.4438 20.08 26.3244V34.0978C20.08 34.1396 20.08 34.1898 20.08 34.2316C20.0466 34.6913 19.637 35.034 19.1773 35.0005C18.7176 34.9671 18.3749 34.5575 18.4083 34.0978V26.3244C18.4083 26.0402 18.425 25.7644 18.4752 25.4886C18.8848 22.9476 21.083 21.0753 23.6575 21.0837C24.2258 21.0837 24.7942 21.1756 25.3292 21.3595C25.7554 21.5016 26.165 21.7022 26.5328 21.9529L27.4271 22.5464C27.611 22.6718 27.8283 22.7386 28.0457 22.7386C28.2713 22.7386 28.4887 22.6718 28.6726 22.5464L29.5669 21.9529C29.9263 21.6855 30.3108 21.4681 30.7287 21.3093C31.272 21.1338 31.8321 21.0335 32.4004 21.0335C34.9999 21.0251 37.2066 22.9225 37.5994 25.4886C37.6412 25.7644 37.6663 26.0486 37.6663 26.3244V34.0978ZM48.1144 33.4793C47.0947 33.4793 46.1502 33.1867 45.331 32.702C45.1471 32.5933 44.9716 32.4679 44.8044 32.3425C44.7961 32.3342 44.7794 32.3258 44.771 32.3175C44.5955 32.1754 44.4199 32.0249 44.2611 31.8661L44.2528 31.8577C44.1023 31.7073 43.9686 31.5485 43.8432 31.3813C43.8181 31.3479 43.8014 31.3228 43.7763 31.2894C43.6593 31.1306 43.5507 30.9634 43.4504 30.7962C43.442 30.7795 43.4336 30.7711 43.4253 30.7544C43.208 30.3783 43.0492 29.9687 42.9321 29.5508C42.9238 29.509 42.9071 29.4672 42.8987 29.4254C42.8569 29.2583 42.8235 29.0911 42.7984 28.9156C42.79 28.8654 42.7817 28.8153 42.7733 28.7651C42.7482 28.5478 42.7315 28.3305 42.7315 28.1131C42.7315 27.8875 42.7482 27.6618 42.7733 27.4445C42.7817 27.4027 42.7817 27.3692 42.79 27.3274C42.8151 27.1352 42.8569 26.943 42.9071 26.7507C42.9154 26.7256 42.9154 26.7089 42.9238 26.6838C43.2915 25.3465 44.1692 24.1847 45.4062 23.4658C45.4062 23.4658 45.4062 23.4658 45.4062 23.4575C46.2003 22.9977 47.1197 22.7303 48.0977 22.7303H48.106C51.0733 22.7303 53.4805 25.1375 53.4805 28.1048C53.4889 31.072 51.0817 33.4793 48.1144 33.4793Z" fill="#46BBB3"/>
<path d="M19.1775 35.0003C19.6372 35.0337 20.0468 34.691 20.0802 34.2313C20.0802 34.1895 20.0802 34.1393 20.0802 34.0975V26.3242C20.0802 24.4435 21.5429 22.8805 23.4236 22.7634H23.6326C25.3628 22.7634 26.8422 24.0005 27.1431 25.6973C27.1766 25.9062 27.2016 26.1152 27.2016 26.3242V33.2115V33.2533C27.2183 33.5375 27.3688 33.7883 27.6112 33.9304C27.7366 34.0056 27.887 34.0474 28.0375 34.0474C28.4805 34.0474 28.8483 33.6963 28.8733 33.2533V33.2115V26.3242C28.8733 26.1152 28.89 25.9062 28.9318 25.6973C29.2327 24.0005 30.7122 22.7634 32.4424 22.7634H32.6514C34.532 22.8805 35.9948 24.4435 35.9948 26.3242V34.0975C35.9948 34.1393 35.9948 34.1895 35.9948 34.2313C36.0282 34.691 36.4378 35.0337 36.8975 35.0003C37.3572 34.9668 37.6999 34.5573 37.6665 34.0975V26.3242C37.6665 26.0483 37.6414 25.7641 37.5996 25.4883C37.2067 22.9222 35.0001 21.0249 32.4006 21.0332C31.8322 21.0332 31.2722 21.1335 30.7289 21.3091C30.311 21.4679 29.9265 21.6852 29.5671 21.9527L28.6727 22.5461C28.4888 22.6715 28.2715 22.7384 28.0458 22.7384C27.8285 22.7384 27.6112 22.6715 27.4273 22.5461L26.533 21.9527C26.1652 21.7019 25.7556 21.5013 25.3293 21.3592C24.7944 21.1753 24.226 21.0834 23.6576 21.0834C21.0832 21.075 18.8849 22.9473 18.4754 25.4883C18.4252 25.7641 18.4085 26.04 18.4085 26.3242V34.0975C18.3751 34.5656 18.7178 34.9668 19.1775 35.0003Z" fill="white"/>
</g>
<defs>
<filter id="filter0_d_3558_284" x="-2" y="-2" width="109" height="60" filterUnits="userSpaceOnUse" color-interpolation-filters="sRGB">
<feFlood flood-opacity="0" result="BackgroundImageFix"/>
<feColorMatrix in="SourceAlpha" type="matrix" values="0 0 0 0 0 0 0 0 0 0 0 0 0 0 0 0 0 0 127 0" result="hardAlpha"/>
<feOffset/>
<feGaussianBlur stdDeviation="1"/>
<feColorMatrix type="matrix" values="0 0 0 0 1 0 0 0 0 1 0 0 0 0 1 0 0 0 0.5 0"/>
<feBlend mode="normal" in2="BackgroundImageFix" result="effect1_dropShadow_3558_284"/>
<feBlend mode="normal" in="SourceGraphic" in2="effect1_dropShadow_3558_284" result="shape"/>
</filter>
</defs>
</svg>
